<svg xmlns="http://www.w3.org/2000/svg" viewBox="0 0 339.42 60"><title>16389_ty_logo</title><g id="Layer_2" data-name="Layer 2"><g id="Layer_1-2" data-name="Layer 1"><path d="M6.3,18.57c-5,10.75,4.07,17.17,4.07,17.17A16.87,16.87,0,0,1,4.7,39.19l.12.37S17,36.79,18.16,26.75A12,12,0,0,1,23,30l.17-.23c-6.51-9.16-16.94-5.2-16.94-5.2a15.33,15.33,0,0,1,.42-6ZM3.39,42.9s-7.71-12,.12-27.33c0,0,15.34.18,23.4,13.66,0,0-7.38,13.34-23.52,13.67" style="fill:#fff"/><path d="M37.7,25.8h2.57c.84,0,2.79.21,2.79,2.15,0,1.32-1.13,2.17-2.89,2.17H37.7ZM40.34,24h-4a.52.52,0,0,0-.52.52V35.47a.52.52,0,0,0,.52.52h.81a.52.52,0,0,0,.52-.52V31.91h2.43c2.86,0,4.79-1.61,4.79-4S43.13,24,40.34,24" style="fill:#fff"/><path d="M52.29,25.8h3.22c.79,0,2.62.18,2.62,1.9,0,1.46-1.44,2-2.67,2H52.29Zm4.89,5.34a3.51,3.51,0,0,0,2.8-3.5,3.42,3.42,0,0,0-1-2.4A4.8,4.8,0,0,0,55.56,24H51a.52.52,0,0,0-.52.52V35.47A.52.52,0,0,0,51,36h.81a.52.52,0,0,0,.52-.52v-4h2.8l3.33,4.33a.52.52,0,0,0,.41.2h1a.52.52,0,0,0,.41-.84Z" style="fill:#fff"/><path d="M74.27,34.2H67.74V30.85h5.75a.52.52,0,0,0,.52-.52v-.75a.52.52,0,0,0-.52-.52H67.74V25.8h6.45a.52.52,0,0,0,.52-.52v-.75a.52.52,0,0,0-.52-.52H66.41a.52.52,0,0,0-.52.52V35.47a.52.52,0,0,0,.52.52h7.86a.52.52,0,0,0,.52-.52v-.75a.52.52,0,0,0-.52-.52" style="fill:#fff"/><path d="M91.34,24h-.77a.52.52,0,0,0-.43.23l-4,5.84-4-5.84a.52.52,0,0,0-.43-.23H81a.52.52,0,0,0-.52.52V35.47A.52.52,0,0,0,81,36h.78a.52.52,0,0,0,.52-.52V27.64l3.38,4.92a.61.61,0,0,0,.92,0L90,27.64v7.83a.52.52,0,0,0,.52.52h.81a.52.52,0,0,0,.52-.52V24.53a.52.52,0,0,0-.52-.52" style="fill:#fff"/><path d="M99.66,24h-.81a.52.52,0,0,0-.52.52V35.47a.52.52,0,0,0,.52.52h.81a.52.52,0,0,0,.52-.52V24.53a.52.52,0,0,0-.52-.52" style="fill:#fff"/><path d="M115,34.2H108.5V30.85h5.75a.52.52,0,0,0,.52-.52v-.75a.52.52,0,0,0-.52-.52H108.5V25.8H115a.52.52,0,0,0,.52-.52v-.75A.52.52,0,0,0,115,24h-7.78a.52.52,0,0,0-.52.52V35.47a.52.52,0,0,0,.52.52H115a.52.52,0,0,0,.52-.52v-.75a.52.52,0,0,0-.52-.52" style="fill:#fff"/><path d="M123.12,25.8h3.21c.79,0,2.62.18,2.62,1.9,0,1.46-1.44,2-2.67,2h-3.17Zm8,9.35-3.1-4a3.51,3.51,0,0,0,2.8-3.5,3.41,3.41,0,0,0-1-2.4A4.8,4.8,0,0,0,126.38,24h-4.6a.52.52,0,0,0-.52.52V35.47a.52.52,0,0,0,.52.52h.81a.52.52,0,0,0,.52-.52v-4h2.8l3.33,4.33a.52.52,0,0,0,.41.2h1a.52.52,0,0,0,.41-.84" style="fill:#fff"/><line x1="167.85" x2="167.85" y2="60" style="fill:none;stroke:#fff;stroke-miterlimit:10"/><path d="M206.13,24h3.16l.65,0a6.62,6.62,0,0,1,.88.1,5.41,5.41,0,0,1,1,.27,2.75,2.75,0,0,1,.88.54,2.84,2.84,0,0,1,.65.9,3.11,3.11,0,0,1,.25,1.33,3,3,0,0,1-.3,1.43,2.78,2.78,0,0,1-.75.91,3.14,3.14,0,0,1-1,.52,6.43,6.43,0,0,1-1,.24L214,36h-1.27l-3.38-5.71h-2.09V36h-1.12Zm1.12,5.3h2.38a3.92,3.92,0,0,0,1.44-.22,2.38,2.38,0,0,0,.86-.54,1.71,1.71,0,0,0,.42-.7,2.15,2.15,0,0,0,0-1.36,1.72,1.72,0,0,0-.42-.7,2.39,2.39,0,0,0-.86-.54,3.92,3.92,0,0,0-1.44-.22h-2.38Z" style="fill:#fff"/><path d="M216.21,24h7.36v1h-6.24v4.28h5.85v1h-5.85V35h6.51v1h-7.63Z" style="fill:#fff"/><path d="M226,28.85a.81.81,0,1,1,.24.58A.79.79,0,0,1,226,28.85Zm0,6.43a.81.81,0,1,1,.24.58A.79.79,0,0,1,226,35.28Z" style="fill:#fff"/><path d="M235.13,24h1.12v5.3H243V24h1.12V36H243V30.28h-6.73V36h-1.12Z" style="fill:#fff"/><path d="M247.4,24h7.36v1h-6.24v4.28h5.85v1h-5.85V35H255v1H247.4Z" style="fill:#fff"/><path d="M261.17,24h1.16l5.07,12h-1.26l-1.31-3.2h-6.37L257.09,36h-1.17Zm.53,1.22-2.81,6.6h5.53Z" style="fill:#fff"/><path d="M269.13,24h1.12V35h5.61v1h-6.73Z" style="fill:#fff"/><path d="M278.73,25h-4.11V24H284v1h-4.11V36h-1.12Z" style="fill:#fff"/><path d="M285.82,24h1.12v5.3h6.73V24h1.12V36h-1.12V30.28h-6.73V36h-1.12Z" style="fill:#fff"/><path d="M308,34.11a5.09,5.09,0,0,1-2,1.68,6,6,0,0,1-2.46.51,6.63,6.63,0,0,1-2.52-.47,5.69,5.69,0,0,1-2-1.31,6,6,0,0,1-1.27-2,7.24,7.24,0,0,1,0-5.07,6,6,0,0,1,1.27-2,5.8,5.8,0,0,1,2-1.32,6.53,6.53,0,0,1,2.52-.48,6,6,0,0,1,2.29.43,4.55,4.55,0,0,1,1.86,1.45l-.92.77a3.34,3.34,0,0,0-1.44-1.24,4.36,4.36,0,0,0-1.79-.39,5.28,5.28,0,0,0-2.12.41,4.71,4.71,0,0,0-1.61,1.12,5,5,0,0,0-1,1.68,6.31,6.31,0,0,0,0,4.18,5,5,0,0,0,1,1.68,4.71,4.71,0,0,0,1.61,1.12,5.28,5.28,0,0,0,2.12.41,4.42,4.42,0,0,0,1.91-.45,4.59,4.59,0,0,0,.89-.58,3.68,3.68,0,0,0,.75-.84Z" style="fill:#fff"/><path d="M313.75,24h1.16L320,36h-1.26l-1.31-3.2H311L309.67,36H308.5Zm.53,1.22-2.81,6.6H317Z" style="fill:#fff"/><path d="M321.71,24h3.16l.65,0a6.62,6.62,0,0,1,.88.1,5.41,5.41,0,0,1,1,.27,2.75,2.75,0,0,1,.88.54,2.84,2.84,0,0,1,.65.9,3.11,3.11,0,0,1,.25,1.33,3,3,0,0,1-.3,1.43,2.78,2.78,0,0,1-.75.91,3.14,3.14,0,0,1-1,.52,6.43,6.43,0,0,1-1,.24l3.5,5.78H328.3l-3.38-5.71h-2.09V36h-1.12Zm1.12,5.3h2.38a3.92,3.92,0,0,0,1.44-.22,2.38,2.38,0,0,0,.86-.54,1.71,1.71,0,0,0,.42-.7,2.15,2.15,0,0,0,0-1.36,1.72,1.72,0,0,0-.42-.7,2.39,2.39,0,0,0-.86-.54,3.92,3.92,0,0,0-1.44-.22h-2.38Z" style="fill:#fff"/><path d="M331.79,24h7.36v1h-6.24v4.28h5.85v1h-5.85V35h6.51v1h-7.63Z" style="fill:#fff"/></g></g></svg>